<?xml version="1.0" encoding="UTF-8" standalone="no"?>
<!-- Created with Inkscape (http://www.inkscape.org/) -->

<svg
   xmlns:dc="http://purl.org/dc/elements/1.1/"
   xmlns:cc="http://creativecommons.org/ns#"
   xmlns:rdf="http://www.w3.org/1999/02/22-rdf-syntax-ns#"
   xmlns:svg="http://www.w3.org/2000/svg"
   xmlns="http://www.w3.org/2000/svg"
   xmlns:sodipodi="http://sodipodi.sourceforge.net/DTD/sodipodi-0.dtd"
   xmlns:inkscape="http://www.inkscape.org/namespaces/inkscape"
   width="506.00024"
   height="570.93555"
   id="svg3118"
   version="1.1"
   inkscape:version="0.48.2 r9819"
   sodipodi:docname="gat_hat.svg"
   inkscape:export-filename="/Users/jngeist/Dropbox/Sites/Geek About Town/pilgrim/content/media/images/gat_hat.png"
   inkscape:export-xdpi="90"
   inkscape:export-ydpi="90">
  <defs
     id="defs3120" />
  <sodipodi:namedview
     id="base"
     pagecolor="#ffffff"
     bordercolor="#666666"
     borderopacity="1.0"
     inkscape:pageopacity="0.0"
     inkscape:pageshadow="2"
     inkscape:zoom="0.5"
     inkscape:cx="93.000128"
     inkscape:cy="71.963483"
     inkscape:document-units="px"
     inkscape:current-layer="svg3118"
     showgrid="false"
     fit-margin-top="1"
     fit-margin-left="1"
     fit-margin-right="1"
     fit-margin-bottom="1"
     borderlayer="true"
     showguides="true"
     inkscape:guide-bbox="true"
     inkscape:snap-midpoints="true"
     inkscape:snap-object-midpoints="true"
     inkscape:snap-nodes="false"
     inkscape:window-width="1436"
     inkscape:window-height="856"
     inkscape:window-x="0"
     inkscape:window-y="0"
     inkscape:window-maximized="0"
     showborder="true"
     inkscape:showpageshadow="true">
    <sodipodi:guide
       orientation="1,0"
       position="18.886969,-150.22141"
       id="guide3189" />
  </sodipodi:namedview>
  <metadata
     id="metadata3123">
    <rdf:RDF>
      <cc:Work
         rdf:about="">
        <dc:format>image/svg+xml</dc:format>
        <dc:type
           rdf:resource="http://purl.org/dc/dcmitype/StillImage" />
        <dc:title></dc:title>
      </cc:Work>
    </rdf:RDF>
  </metadata>
  <path
     style="fill:#000000;fill-opacity:1;stroke:none"
     d="m 501.85811,205.4265 c -18.73696,-36.83396 -52.82064,-14.2518 -71.46109,-13.38555 -3.36615,0.16604 -6.49099,-0.0257 -9.72441,-0.36807 v -80.79984 c 0,-54.23043 -37.41363,-96.09586 -99.86217,-104.92464 0,0 -21.86181,-4.9484 -67.80539,-4.9484 -45.95567,0 -67.82954,4.9484 -67.82954,4.9484 -62.44853,8.84065 -99.850101,50.69421 -99.850101,104.92469 v 67.09387 c 11.751329,3.14463 23.526791,6.1825 33.504561,8.85246 14.21259,3.79736 36.61732,10.2528 36.00201,13.64666 -0.7963,4.41439 -4.43992,6.38424 -8.85573,6.38424 -0.55499,0 -1.10998,-0.0463 -1.67702,-0.15422 -3.0404,-0.53401 -62.907012,-11.29701 -98.631539,-21.32434 -15.020948,-2.64626 -30.801993,-1.0561 -41.5157292,20.04271 -9.7606009,19.17648 5.3086081,45.34239 15.8534352,54.75262 13.862705,12.36499 31.731002,22.90257 51.517631,27.38816 l 1.303021,-25.96419 c 45.967731,9.39836 103.940141,14.99943 166.943671,14.99943 75.65972,0 144.03219,-8.06931 193.08856,-21.09888 l 1.61671,32.06364 c 19.78663,-4.48559 37.65491,-15.02317 51.52969,-27.38816 10.54483,-9.39835 25.58991,-35.56426 15.85343,-54.74074 z"
     id="path3183"
     inkscape:connector-curvature="0" />
  <path
     id="path3185"
     d="m 78.470265,324.69134 c 55.591875,-12.54897 100.595925,-8.23046 150.445785,3.1963 7.39166,1.69406 15.2014,3.58252 23.4486,3.83051 13.73495,0.41331 29.17451,-2.94879 42.48731,-6.23808 52.55574,-12.98542 93.61072,-6.23109 133.17411,2.08309 l -2.92243,22.99515 c -6.17652,0.13521 -8.11878,2.96678 -9.88345,8.49649 -9.23458,28.93684 -1.36936,78.72758 -69.63729,72.87314 -44.91075,-3.85133 -57.77268,-15.95445 -79.17742,-69.16749 -1.82096,-4.52661 -3.00528,-12.00597 -13.40535,-11.72956 -5.87228,0.15628 -11.12462,1.1767 -12.95669,11.21189 -3.41422,18.69905 -19.64918,67.84568 -82.08409,69.44756 -50.45119,1.29462 -64.316033,-23.81761 -66.436723,-76.19082 -0.263263,-6.50298 -6.025071,-7.73725 -9.48081,-7.81333 l -3.571855,-22.99511 z m 143.524565,50.1421 c 15.39135,-44.67281 -24.56998,-44.31352 -62.67037,-47.90649 -56.50058,-0.10538 -54.55235,17.03349 -54.55235,46.30961 5.05783,43.63207 16.12757,50.46144 54.22757,50.46144 38.46787,-1.01008 53.44194,-21.13753 62.99479,-48.86456 z m 62.9947,0 c -15.39134,-44.67281 24.56997,-44.31352 62.67036,-47.90649 56.50058,-0.10538 54.55228,17.03349 54.55228,46.30961 -5.05775,43.63207 -16.1275,50.46144 -54.22755,50.46144 -38.46781,-1.01008 -53.44188,-21.13753 -62.99472,-48.86456 z M 95.680358,334.91143 c 4.930992,0 8.929862,1.0012 8.929862,2.23562 0,1.23464 -3.99887,2.23563 -8.929862,2.23563 -4.930749,0 -8.929616,-1.0012 -8.929616,-2.23563 0,-1.23453 3.998867,-2.23562 8.929616,-2.23562 z m 316.110852,2.23562 c 4.93102,0 8.92987,1.0012 8.92987,2.23563 0,1.23463 -3.99885,2.23562 -8.92987,2.23562 -4.93074,0 -8.92953,-1.0012 -8.92953,-2.23562 0,-1.23464 3.99879,-2.23563 8.92953,-2.23563 z"
     style="fill:#000000;fill-opacity:1;fill-rule:evenodd;stroke:#000000;stroke-width:1.19654095;stroke-miterlimit:4;stroke-opacity:1;stroke-dasharray:none"
     inkscape:connector-curvature="0" />
  <text
     xml:space="preserve"
     style="font-size:306.30175781px;font-style:normal;font-weight:normal;line-height:125%;letter-spacing:0px;word-spacing:0px;fill:#000000;fill-opacity:1;stroke:none;font-family:Sans"
     x="479.89957"
     y="-187.19971"
     id="text3062"
     sodipodi:linespacing="125%"
     transform="matrix(0,1,-1,0,0,0)"><tspan
       sodipodi:role="line"
       id="tspan3064"
       x="479.89957"
       y="-187.19971"
       style="font-size:306.30175781px;font-style:normal;font-variant:normal;font-weight:300;font-stretch:normal;text-align:start;line-height:125%;writing-mode:lr-tb;text-anchor:start;font-family:Neuton;-inkscape-font-specification:Neuton Light">\</tspan></text>
  <text
     xml:space="preserve"
     style="font-size:40px;font-style:normal;font-weight:normal;line-height:125%;letter-spacing:0px;word-spacing:0px;fill:#000000;fill-opacity:1;stroke:none;font-family:Sans"
     x="331.00012"
     y="380.99997"
     id="text3066"
     sodipodi:linespacing="125%"><tspan
       sodipodi:role="line"
       id="tspan3068"
       x="331.00012"
       y="380.99997"
       style="font-size:72px;font-style:normal;font-variant:normal;font-weight:normal;font-stretch:normal;font-family:Old Standard TT;-inkscape-font-specification:Old Standard TT">x</tspan></text>
  <text
     sodipodi:linespacing="125%"
     id="text3070"
     y="380.99997"
     x="145.00012"
     style="font-size:40px;font-style:normal;font-weight:normal;line-height:125%;letter-spacing:0px;word-spacing:0px;fill:#000000;fill-opacity:1;stroke:none;font-family:Sans"
     xml:space="preserve"><tspan
       style="font-size:72px;font-style:normal;font-variant:normal;font-weight:normal;font-stretch:normal;font-family:Old Standard TT;-inkscape-font-specification:Old Standard TT"
       y="380.99997"
       x="145.00012"
       id="tspan3072"
       sodipodi:role="line">x</tspan></text>
</svg>