<?xml version="1.0" encoding="UTF-8" standalone="no"?>
<!-- Created with Inkscape (http://www.inkscape.org/) -->

<svg
   xmlns:dc="http://purl.org/dc/elements/1.1/"
   xmlns:cc="http://creativecommons.org/ns#"
   xmlns:rdf="http://www.w3.org/1999/02/22-rdf-syntax-ns#"
   xmlns:svg="http://www.w3.org/2000/svg"
   xmlns="http://www.w3.org/2000/svg"
   xmlns:sodipodi="http://sodipodi.sourceforge.net/DTD/sodipodi-0.dtd"
   xmlns:inkscape="http://www.inkscape.org/namespaces/inkscape"
   width="278.49063"
   height="321.00577"
   id="svg3118"
   version="1.1"
   inkscape:version="0.48.2 r9819"
   sodipodi:docname="gat_logo.svg">
  <defs
     id="defs3120" />
  <sodipodi:namedview
     id="base"
     pagecolor="#ffffff"
     bordercolor="#666666"
     borderopacity="1.0"
     inkscape:pageopacity="0.0"
     inkscape:pageshadow="2"
     inkscape:zoom="2.5816966"
     inkscape:cx="138.69173"
     inkscape:cy="259.63549"
     inkscape:document-units="px"
     inkscape:current-layer="svg3118"
     showgrid="false"
     fit-margin-top="1"
     fit-margin-left="1"
     fit-margin-right="1"
     fit-margin-bottom="1"
     borderlayer="true"
     showguides="true"
     inkscape:guide-bbox="true"
     inkscape:snap-midpoints="true"
     inkscape:snap-object-midpoints="true"
     inkscape:snap-nodes="false"
     inkscape:window-width="1436"
     inkscape:window-height="856"
     inkscape:window-x="0"
     inkscape:window-y="0"
     inkscape:window-maximized="0">
    <sodipodi:guide
       orientation="1,0"
       position="139.16402,313.64626"
       id="guide3189" />
  </sodipodi:namedview>
  <metadata
     id="metadata3123">
    <rdf:RDF>
      <cc:Work
         rdf:about="">
        <dc:format>image/svg+xml</dc:format>
        <dc:type
           rdf:resource="http://purl.org/dc/dcmitype/StillImage" />
        <dc:title />
      </cc:Work>
    </rdf:RDF>
  </metadata>
  <path
     style="fill:#000000;fill-opacity:1;stroke:none"
     d="m 194.10894,46.350083 c -4.178,-8.171281 -11.77798,-3.161634 -15.93444,-2.969461 -0.75059,0.03686 -1.44737,-0.0053 -2.16835,-0.0816 V 25.374319 c 0,-12.030526 -8.3425,-21.317987 -22.26731,-23.276567 0,0 -4.87477,-1.097752 -15.11928,-1.097752 -10.24721,0 -15.12466,1.097752 -15.12466,1.097752 -13.9248,1.961213 -22.26461,11.246041 -22.26461,23.276567 v 14.884158 c 2.62031,0.697611 5.24601,1.371532 7.47085,1.963844 3.16914,0.842401 8.16495,2.274481 8.02775,3.027377 -0.17756,0.979289 -0.99002,1.416285 -1.97465,1.416285 -0.12376,0 -0.24751,-0.01059 -0.37394,-0.03422 -0.67796,-0.118462 -14.02704,-2.506139 -21.992909,-4.730602 -3.349378,-0.587048 -6.868242,-0.234292 -9.257195,4.446293 -2.176423,4.254121 1.183715,10.058785 3.535005,12.146355 3.091113,2.743067 7.075393,5.080727 11.487425,6.075812 l 0.290548,-5.759911 c 10.249896,2.084941 23.176616,3.327481 37.225166,3.327481 16.87064,0 32.11637,-1.7901 43.05498,-4.680585 l 0.3605,7.113015 c 4.41202,-0.995085 8.3963,-3.332745 11.49011,-6.075812 2.35128,-2.08494 5.70604,-7.889603 3.53501,-12.143722 z"
     id="path3183"
     inkscape:connector-curvature="0" />
  <path
     id="path3185"
     d="m 100.29068,72.807712 c 12.39589,-2.783872 22.43092,-1.82586 33.54646,0.709065 1.64819,0.375815 3.38962,0.794746 5.22858,0.849769 3.06263,0.09169 6.50535,-0.654165 9.47384,-1.383863 11.71889,-2.880697 20.87336,-1.382312 29.69521,0.462118 l -0.65163,5.101254 c -1.37725,0.02995 -1.81035,0.65816 -2.20382,1.884867 -2.05914,6.419369 -0.30535,17.464993 -15.52776,16.166232 -10.01421,-0.854382 -12.88218,-3.539348 -17.65501,-15.344171 -0.40605,-1.004181 -0.67012,-2.663411 -2.98913,-2.602088 -1.30941,0.03464 -2.48057,0.261039 -2.88909,2.487251 -0.7613,4.148221 -4.38138,15.050939 -18.30316,15.406298 -11.24962,0.2872 -14.34121,-5.283707 -14.81408,-16.902228 -0.0587,-1.442628 -1.34347,-1.716433 -2.11403,-1.733312 l -0.79645,-5.101255 z m 32.00316,11.123557 c 3.43198,-9.910253 -5.47862,-9.83055 -13.97426,-10.627604 -12.59853,-0.02343 -12.16411,3.778709 -12.16411,10.273352 1.12779,9.679371 3.59612,11.194407 12.09168,11.194407 8.57759,-0.224079 11.91652,-4.689171 14.0466,-10.840155 z m 14.04659,0 c -3.43197,-9.910253 5.47861,-9.83055 13.97426,-10.627604 12.59852,-0.02343 12.16409,3.778709 12.16409,10.273352 -1.12777,9.679371 -3.59611,11.194407 -12.09169,11.194407 -8.57757,-0.224079 -11.91648,-4.689171 -14.04659,-10.840155 z m -42.21225,-8.856332 c 1.09952,0 1.99119,0.222105 1.99119,0.495956 0,0.273893 -0.89167,0.495956 -1.99119,0.495956 -1.09946,0 -1.99113,-0.222106 -1.99113,-0.495956 0,-0.273869 0.89167,-0.495956 1.99113,-0.495956 z m 70.48655,0.495956 c 1.0995,0 1.99117,0.222105 1.99117,0.495956 0,0.273892 -0.89167,0.49595 -1.99117,0.49595 -1.09946,0 -1.99113,-0.222103 -1.99113,-0.49595 0,-0.273893 0.89167,-0.495956 1.99113,-0.495956 z"
     style="fill:#000000;fill-opacity:1;fill-rule:evenodd;stroke:#000000;stroke-width:0.26612249;stroke-miterlimit:4;stroke-opacity:1;stroke-dasharray:none"
     inkscape:connector-curvature="0" />
  <path
     style="fill:#800000;fill-opacity:1;stroke:none"
     d="m 141.61762,194.21006 c 0,0 1.54422,-8.51214 5.2514,-12.32343 -0.61607,-0.18444 -7.78561,-14.67391 -7.78561,-14.67391 l -7.83674,14.67391 c 2.30825,1.46446 6.60728,10.90595 5.70605,23.35957 -0.10223,1.39941 -0.3847,2.39381 -0.79901,2.43358 -0.12375,0.011 -0.24751,-0.0651 -0.37126,-0.23503 -0.5246,-0.69065 -0.75058,-2.65053 -0.56495,-4.17651 0.29592,-2.37934 0.41161,-5.19625 0.44926,-7.0549 -2.10914,4.63575 -10.93804,45.03549 -12.12176,63.69785 -0.14797,2.33597 15.12684,44.13397 15.12684,44.13397 0,0 16.956,-40.63236 16.80805,-42.97194 -1.4662,-23.86945 -13.86227,-66.86316 -13.86227,-66.86316 z"
     id="path3187"
     inkscape:connector-curvature="0"
     sodipodi:nodetypes="ccccccccccccc" />
  <path
     style="fill:#000000;fill-opacity:1;stroke:#000000;stroke-width:3.11898851px;stroke-linecap:butt;stroke-linejoin:miter;stroke-opacity:1"
     d="m 4.1053119,318.44627 c 0,-59.09433 -9.7487273,-98.58907 19.7173511,-131.857 15.055696,-16.99825 65.662661,-18.13686 65.662661,-18.13686 l 49.133146,138.86032 54.7224,-139.55297 c -0.15111,-1.01562 48.00098,-1.21355 61.13601,15.16695 27.69364,34.53632 20.65475,87.89758 20.65475,135.51956 -43.01059,0 -271.0263181,0 -271.0263181,0 z"
     id="path3971"
     inkscape:connector-curvature="0"
     sodipodi:nodetypes="cacccscc" />
</svg>